<?xml version="1.0" encoding="UTF-8" standalone="no"?>
<!DOCTYPE svg PUBLIC "-//W3C//DTD SVG 1.1//EN" "http://www.w3.org/Graphics/SVG/1.1/DTD/svg11.dtd">
<svg width="100%" height="100%" viewBox="0 0 138 156" version="1.1" xmlns="http://www.w3.org/2000/svg" xmlns:xlink="http://www.w3.org/1999/xlink" xml:space="preserve" xmlns:serif="http://www.serif.com/" style="fill-rule:evenodd;clip-rule:evenodd;stroke-linejoin:round;stroke-miterlimit:2;">
    <g transform="matrix(1,0,0,1,-925.389,-154.48)">
        <g transform="matrix(1,0,0,1,60.8891,-304.325)">
            <path d="M932.979,594.26C933.097,594.268 933.193,594.358 933.209,594.476C933.225,594.593 933.156,594.706 933.044,594.745C925.777,597.287 885.978,611.209 879.034,613.638C878.924,613.677 878.801,613.634 878.739,613.535C878.677,613.437 878.692,613.308 878.774,613.226C882.955,609.045 902.733,589.267 905.211,586.789C905.364,586.637 905.596,586.599 905.788,586.696C914.091,590.841 923.274,593.482 932.979,594.26Z" style="fill:white;"/>
            <g transform="matrix(1,0,0,1,-60.8891,304.325)">
                <path d="M984.645,263.586C984.776,263.455 984.969,263.408 985.146,263.463C989.807,264.9 994.759,265.675 999.889,265.675C1027.49,265.675 1049.89,243.271 1049.89,215.675C1049.89,194.169 1036.28,175.817 1017.22,168.764C1017.02,168.691 1016.89,168.504 1016.89,168.295C1016.89,166.571 1016.89,158.923 1016.89,155.807C1016.89,155.492 1017.04,155.195 1017.29,155.006C1017.54,154.817 1017.87,154.758 1018.17,154.847C1044.32,162.708 1063.39,186.982 1063.39,215.675C1063.39,250.721 1034.94,279.175 999.889,279.175C991.349,279.175 983.2,277.485 975.759,274.422C975.452,274.294 975.229,274.021 975.165,273.694C975.1,273.367 975.203,273.03 975.438,272.794C977.808,270.423 983.475,264.757 984.645,263.586Z" style="fill:white;"/>
            </g>
            <g transform="matrix(1,0,0,1,-60.8891,304.325)">
                <path d="M1008.5,239.732C1008.55,239.681 1008.61,239.641 1008.68,239.616C1018.43,236.032 1025.39,226.66 1025.39,215.675C1025.39,208.209 1022.17,201.488 1017.05,196.823C1016.95,196.728 1016.89,196.594 1016.89,196.453C1016.89,194.928 1016.89,185.94 1016.89,182.201C1016.89,181.851 1017.07,181.526 1017.37,181.345C1017.67,181.163 1018.04,181.152 1018.35,181.314C1030.57,187.907 1038.89,200.827 1038.89,215.675C1038.89,237.2 1021.41,254.675 999.889,254.675C998.594,254.675 997.313,254.612 996.05,254.488C995.667,254.449 995.34,254.193 995.21,253.829C995.081,253.466 995.172,253.06 995.445,252.788C998.932,249.3 1007.59,240.642 1008.5,239.732Z" style="fill:white;"/>
            </g>
            <path d="M896.341,545.973C896.406,545.833 896.402,545.671 896.332,545.534C896.261,545.397 896.13,545.3 895.979,545.272C892.785,544.679 878.263,541.986 870.105,540.472C869.01,540.269 868.118,539.476 867.787,538.412C867.457,537.348 867.744,536.189 868.531,535.401C883.688,520.245 936.768,467.164 944.146,459.786C944.289,459.643 944.504,459.6 944.691,459.678C944.878,459.755 945,459.937 945,460.14C945,466.099 945,492.203 945,494.793C945,494.926 944.947,495.053 944.854,495.146C942.895,497.105 921.892,518.108 918.089,521.911C917.965,522.035 917.915,522.215 917.957,522.386C918,522.556 918.129,522.692 918.296,522.743C921.479,523.714 933.436,527.361 940.221,529.431C941.229,529.739 942.001,530.552 942.256,531.574C942.512,532.596 942.212,533.677 941.467,534.422C927.474,548.415 876.322,599.567 868.555,607.334C868.469,607.42 868.335,607.432 868.235,607.362C868.136,607.293 868.101,607.162 868.151,607.052C872.012,598.688 893.673,551.754 896.341,545.973Z" style="fill:white;"/>
        </g>
    </g>
</svg>
