<?xml version="1.0" encoding="UTF-8" standalone="no"?>
<!DOCTYPE svg PUBLIC "-//W3C//DTD SVG 1.1//EN" "http://www.w3.org/Graphics/SVG/1.1/DTD/svg11.dtd">
<svg width="100%" height="100%" viewBox="0 0 1351 161" version="1.1" xmlns="http://www.w3.org/2000/svg" xmlns:xlink="http://www.w3.org/1999/xlink" xml:space="preserve" xmlns:serif="http://www.serif.com/" style="fill-rule:evenodd;clip-rule:evenodd;stroke-linejoin:round;stroke-miterlimit:2;">
    <g transform="matrix(1,0,0,1,-284.593,-379)">
        <g transform="matrix(1,0,0,1,-202.887,-52.1063)">
            <g transform="matrix(224.763,0,0,224.763,445,590)">
                <path d="M0.391,-0.548C0.4,-0.553 0.411,-0.564 0.411,-0.587L0.411,-0.614C0.411,-0.662 0.372,-0.706 0.324,-0.707L0.279,-0.707C0.229,-0.707 0.189,-0.663 0.189,-0.614L0.189,-0.542C0.189,-0.542 0.186,-0.495 0.221,-0.431L0.307,-0.27C0.307,-0.27 0.338,-0.216 0.338,-0.175L0.338,-0.095C0.338,-0.073 0.321,-0.056 0.3,-0.056C0.279,-0.056 0.262,-0.073 0.262,-0.094L0.262,-0.216C0.244,-0.208 0.215,-0.195 0.209,-0.193C0.2,-0.188 0.189,-0.177 0.189,-0.154L0.189,-0.082C0.19,-0.034 0.228,0.005 0.276,0.007L0.321,0.007C0.371,0.007 0.411,-0.033 0.411,-0.082L0.411,-0.171C0.411,-0.171 0.414,-0.218 0.379,-0.282L0.293,-0.444C0.293,-0.444 0.262,-0.497 0.262,-0.538L0.262,-0.605C0.262,-0.627 0.279,-0.644 0.3,-0.644C0.321,-0.644 0.338,-0.627 0.338,-0.605L0.338,-0.524C0.357,-0.532 0.385,-0.545 0.391,-0.548Z" style="fill:white;fill-rule:nonzero;"/>
            </g>
            <g transform="matrix(224.763,0,0,224.763,579.858,590)">
                <path d="M0.412,-0.251C0.394,-0.243 0.366,-0.231 0.36,-0.228C0.351,-0.223 0.341,-0.212 0.341,-0.189L0.341,-0.095C0.341,-0.073 0.324,-0.056 0.302,-0.056C0.281,-0.056 0.264,-0.073 0.264,-0.095L0.264,-0.606C0.264,-0.627 0.281,-0.644 0.302,-0.644C0.324,-0.644 0.341,-0.627 0.341,-0.606L0.341,-0.449L0.393,-0.473C0.402,-0.477 0.412,-0.488 0.412,-0.511L0.412,-0.618C0.412,-0.666 0.374,-0.706 0.326,-0.707L0.282,-0.707C0.232,-0.707 0.192,-0.667 0.192,-0.618L0.192,-0.082C0.192,-0.033 0.232,0.007 0.282,0.007L0.326,0.007C0.374,0.005 0.412,-0.034 0.412,-0.082L0.412,-0.251Z" style="fill:white;fill-rule:nonzero;"/>
            </g>
            <g transform="matrix(224.763,0,0,224.763,714.716,590)">
                <path d="M0.408,-0L0.408,-0.268C0.408,-0.268 0.41,-0.32 0.382,-0.334C0.411,-0.341 0.408,-0.396 0.408,-0.396L0.408,-0.612C0.408,-0.661 0.368,-0.7 0.32,-0.7L0.189,-0.7L0.189,-0L0.261,-0L0.261,-0.301L0.299,-0.301C0.318,-0.301 0.336,-0.29 0.336,-0.256L0.336,-0L0.408,-0ZM0.261,-0.369L0.261,-0.633L0.299,-0.633C0.318,-0.633 0.336,-0.623 0.336,-0.597L0.336,-0.409C0.336,-0.377 0.318,-0.369 0.299,-0.369L0.261,-0.369Z" style="fill:white;fill-rule:nonzero;"/>
            </g>
            <g transform="matrix(224.763,0,0,224.763,849.574,590)">
                <path d="M0.214,-0.7L0.214,-0.015C0.215,-0.01 0.218,-0 0.235,-0L0.286,-0L0.286,-0.672C0.286,-0.684 0.278,-0.7 0.257,-0.7L0.214,-0.7Z" style="fill:white;fill-rule:nonzero;"/>
            </g>
            <g transform="matrix(224.763,0,0,224.763,961.956,590)">
                <path d="M0.209,-0.7L0.209,-0.015C0.209,-0.01 0.212,-0 0.229,-0L0.28,-0L0.28,-0.314L0.323,-0.314C0.392,-0.314 0.425,-0.363 0.425,-0.431L0.425,-0.612C0.425,-0.661 0.382,-0.7 0.334,-0.7L0.209,-0.7ZM0.356,-0.415C0.354,-0.396 0.338,-0.381 0.318,-0.381L0.28,-0.381L0.28,-0.633L0.318,-0.633C0.338,-0.633 0.354,-0.618 0.356,-0.599L0.356,-0.415Z" style="fill:white;fill-rule:nonzero;"/>
            </g>
            <g transform="matrix(224.763,0,0,224.763,1096.81,590)">
                <path d="M0.441,-0.7L0.155,-0.7C0.143,-0.7 0.133,-0.69 0.133,-0.678L0.133,-0.629L0.234,-0.629L0.234,-0.015C0.234,-0.01 0.237,-0 0.254,-0L0.305,-0L0.305,-0.612C0.306,-0.621 0.313,-0.629 0.323,-0.629L0.379,-0.629C0.402,-0.629 0.413,-0.639 0.417,-0.648L0.441,-0.7Z" style="fill:white;fill-rule:nonzero;"/>
            </g>
            <g transform="matrix(224.763,0,0,224.763,1220.43,590)">
                <path d="M0.408,-0L0.408,-0.268C0.408,-0.268 0.41,-0.32 0.382,-0.334C0.411,-0.341 0.408,-0.396 0.408,-0.396L0.408,-0.612C0.408,-0.661 0.368,-0.7 0.32,-0.7L0.189,-0.7L0.189,-0L0.261,-0L0.261,-0.301L0.299,-0.301C0.318,-0.301 0.336,-0.29 0.336,-0.256L0.336,-0L0.408,-0ZM0.261,-0.369L0.261,-0.633L0.299,-0.633C0.318,-0.633 0.336,-0.623 0.336,-0.597L0.336,-0.409C0.336,-0.377 0.318,-0.369 0.299,-0.369L0.261,-0.369Z" style="fill:white;fill-rule:nonzero;"/>
            </g>
            <g transform="matrix(224.763,0,0,224.763,1355.29,590)">
                <path d="M0.274,-0.707C0.224,-0.707 0.184,-0.667 0.184,-0.618L0.184,-0.081C0.185,-0.033 0.225,0.007 0.274,0.007L0.329,0.007C0.377,0.005 0.415,-0.033 0.416,-0.081L0.416,-0.618C0.416,-0.666 0.377,-0.705 0.329,-0.707L0.274,-0.707ZM0.294,-0.056C0.273,-0.057 0.256,-0.074 0.256,-0.095L0.256,-0.605C0.256,-0.626 0.273,-0.643 0.294,-0.644L0.305,-0.644C0.326,-0.644 0.343,-0.627 0.343,-0.605L0.343,-0.095C0.343,-0.073 0.326,-0.056 0.305,-0.056L0.294,-0.056Z" style="fill:white;fill-rule:nonzero;"/>
            </g>
            <g transform="matrix(224.763,0,0,224.763,1490.15,590)">
                <path d="M0.415,-0.7L0.343,-0.7L0.343,-0.297L0.269,-0.661C0.265,-0.681 0.258,-0.7 0.218,-0.7L0.185,-0.7L0.185,-0L0.257,-0L0.257,-0.391L0.334,-0.045C0.337,-0.031 0.343,-0 0.382,-0L0.415,-0L0.415,-0.7Z" style="fill:white;fill-rule:nonzero;"/>
            </g>
            <g transform="matrix(224.763,0,0,224.763,1625.01,590)">
                <path d="M0.214,-0.7L0.214,-0.015C0.215,-0.01 0.218,-0 0.235,-0L0.286,-0L0.286,-0.672C0.286,-0.684 0.278,-0.7 0.257,-0.7L0.214,-0.7Z" style="fill:white;fill-rule:nonzero;"/>
            </g>
            <g transform="matrix(224.763,0,0,224.763,1737.39,590)">
                <path d="M0.234,-0L0.151,-0L0.262,-0.371L0.168,-0.7L0.224,-0.7C0.227,-0.7 0.245,-0.7 0.252,-0.676L0.303,-0.49L0.351,-0.676C0.358,-0.7 0.376,-0.7 0.379,-0.7L0.435,-0.7L0.345,-0.37L0.449,-0L0.371,-0L0.306,-0.254L0.234,-0Z" style="fill:white;fill-rule:nonzero;"/>
            </g>
        </g>
    </g>
</svg>
